<svg width="46" height="46" viewBox="0 0 46 46" fill="none" xmlns="http://www.w3.org/2000/svg">
<path d="M8.8867 37.1619C18.3156 37.1619 27.6542 37.1619 37.1133 37.1619C37.1133 31.9436 37.1133 26.7252 37.1133 21.3862C30.8474 21.3862 24.6418 21.3862 18.3458 21.3862C18.3458 20.2701 18.3458 19.3049 18.3458 18.2492C25.666 18.2492 32.926 18.2492 40.3065 18.2492C40.3065 25.6092 40.3065 32.9692 40.3065 40.3895C28.7688 40.3895 17.2914 40.3895 5.72363 40.3895C5.72363 28.8065 5.72363 17.2538 5.72363 5.61047C17.201 5.61047 28.7086 5.61047 40.3366 5.61047C40.3366 6.54556 40.3366 7.48064 40.3366 8.5967C29.9135 8.5967 19.4604 8.5967 8.91682 8.5967C8.8867 18.2492 8.8867 27.6603 8.8867 37.1619Z" fill="white"/>
<path d="M11.9895 34.0248C11.9895 26.6045 11.9895 19.335 11.9895 11.9448C21.4486 11.9448 30.8474 11.9448 40.3366 11.9448C40.3366 12.9101 40.3366 13.8452 40.3366 14.9914C31.9921 14.9914 23.6477 14.9914 15.2128 14.9914C15.2128 20.3304 15.2128 25.4884 15.2128 30.737C20.3942 30.737 25.5154 30.737 30.7871 30.737C30.7871 29.832 30.7871 28.897 30.7871 27.7507C26.7203 27.7507 22.5933 27.7507 18.3458 27.7507C18.3458 26.6347 18.3458 25.6996 18.3458 24.6137C23.497 24.6137 28.6784 24.6137 33.9803 24.6137C33.9803 27.6904 33.9803 30.7671 33.9803 33.9947C26.7203 34.0248 19.4302 34.0248 11.9895 34.0248Z" fill="white"/>
<path d="M41.2704 9.62219C47.5965 16.6806 47.5363 29.3494 41.2704 36.2268C41.5114 34.9599 41.5415 33.5724 42.0536 32.4563C44.9757 26.0615 44.9456 19.7573 42.0536 13.3927C41.5415 12.2766 41.5114 10.8891 41.2704 9.62219Z" fill="white"/>
<path d="M36.3903 41.7166C29.2207 47.4779 17.0203 47.4779 9.70007 41.3245C10.9352 41.5356 12.3209 41.5055 13.4355 42.0183C19.7918 44.8838 26.0878 44.9442 32.444 42.0786C33.6189 41.5658 35.0046 41.5055 36.2698 41.2642C36.3301 41.415 36.3602 41.5658 36.3903 41.7166Z" fill="white"/>
<path d="M4.88013 9.74286C4.51864 11.1907 4.30777 12.7291 3.7354 14.0865C1.17482 20.0589 1.1447 25.9409 3.76553 31.8832C4.36801 33.2104 4.48851 34.7488 4.63913 36.257C-1.35563 29.4701 -1.65687 17.0727 4.36801 9.59204C4.54876 9.6222 4.69938 9.68253 4.88013 9.74286Z" fill="white"/>
<path d="M9.88074 4.61504C16.3876 -1.50824 29.6424 -1.50824 36.2095 4.58487C35.0346 4.40389 33.7393 4.52454 32.7452 4.04192C26.178 0.874707 19.7314 0.935035 13.1944 4.10225C12.2304 4.55471 10.9953 4.43405 9.88074 4.61504Z" fill="white"/>
</svg>
